<svg xmlns="http://www.w3.org/2000/svg" viewBox="0 0 256 256">
<path d="M 9.00 36.50 L 5.50 36.00 L 3.00 26.50 L 20.00 26.50 L 31.50 34.00 L 10.00 35.50 L 9.00 36.50 Z" fill="#697DC7"/>
<path d="M 250.00 36.50 L 224.50 34.00 L 236.00 26.50 L 253.00 26.50 L 250.00 36.50 Z" fill="#697DC7"/>
<path d="M 29.00 29.50 L 27.50 29.00 L 29.00 28.50 L 29.00 29.50 Z" fill="#697DC7"/>
<path d="M 228.00 29.50 L 226.50 29.00 L 228.00 28.50 L 228.00 29.50 Z" fill="#697DC7"/>
<path d="M 115.00 149.50 L 110.00 149.50 L 105.00 146.50 L 87.50 129.00 L 80.50 118.00 L 77.50 100.00 L 71.50 83.00 L 64.50 69.00 L 50.50 49.00 L 30.00 29.50 L 35.00 30.50 L 48.00 37.50 L 65.50 55.00 L 72.50 66.00 L 77.50 77.00 L 83.50 103.00 L 90.50 120.00 L 98.50 132.00 L 111.00 144.50 L 116.50 148.00 L 115.00 149.50 Z" fill="#697DC7"/>
<path d="M 146.00 149.50 L 141.00 149.50 L 139.50 148.00 L 145.00 144.50 L 157.50 132.00 L 165.50 120.00 L 172.50 103.00 L 178.50 77.00 L 186.50 61.00 L 194.50 50.00 L 204.00 40.50 L 211.00 35.50 L 221.00 30.50 L 226.00 29.50 L 205.50 49.00 L 191.50 69.00 L 182.50 88.00 L 176.50 108.00 L 175.50 118.00 L 172.50 123.00 L 165.50 133.00 L 155.00 143.50 L 146.00 149.50 Z" fill="#697DC7"/>
<path d="M 42.00 56.50 L 30.00 56.50 L 11.00 50.50 L 6.50 39.00 L 19.00 36.50 L 36.00 37.50 L 52.50 55.00 L 42.00 56.50 Z" fill="#697DC7"/>
<path d="M 226.00 56.50 L 203.50 55.00 L 220.00 37.50 L 237.00 36.50 L 249.50 39.00 L 246.50 49.00 L 245.00 50.50 L 226.00 56.50 Z" fill="#697DC7"/>
<path d="M 28.00 82.50 L 15.50 62.00 L 16.00 60.50 L 19.00 59.50 L 54.00 57.50 L 63.50 72.00 L 28.00 82.50 Z" fill="#697DC7"/>
<path d="M 228.00 82.50 L 192.50 72.00 L 202.00 57.50 L 237.00 59.50 L 240.00 60.50 L 240.50 62.00 L 228.00 82.50 Z" fill="#697DC7"/>
<path d="M 34.00 88.50 L 29.50 85.00 L 30.00 83.50 L 62.00 74.50 L 65.00 74.50 L 66.50 77.00 L 65.00 78.50 L 34.00 88.50 Z" fill="#697DC7"/>
<path d="M 223.00 88.50 L 191.00 78.50 L 189.50 77.00 L 191.00 74.50 L 194.00 74.50 L 213.00 80.50 L 224.00 82.50 L 226.50 85.00 L 223.00 88.50 Z" fill="#697DC7"/>
<path d="M 48.00 98.50 L 41.00 98.50 L 36.50 94.00 L 34.50 91.00 L 35.00 89.50 L 66.00 79.50 L 67.50 80.00 L 70.50 86.00 L 68.00 89.50 L 55.00 97.50 L 48.00 98.50 Z" fill="#697DC7"/>
<path d="M 215.00 98.50 L 201.00 97.50 L 187.00 88.50 L 185.50 86.00 L 188.50 80.00 L 190.00 79.50 L 221.00 89.50 L 221.50 91.00 L 215.00 98.50 Z" fill="#697DC7"/>
<path d="M 58.00 114.50 L 47.50 105.00 L 71.00 89.50 L 73.50 94.00 L 75.50 103.00 L 58.00 114.50 Z" fill="#697DC7"/>
<path d="M 198.00 114.50 L 180.50 103.00 L 182.50 94.00 L 185.00 89.50 L 208.50 105.00 L 198.00 114.50 Z" fill="#697DC7"/>
<path d="M 68.00 121.50 L 62.00 117.50 L 60.50 115.00 L 76.00 105.50 L 78.50 113.00 L 68.00 121.50 Z" fill="#697DC7"/>
<path d="M 188.00 121.50 L 177.50 113.00 L 180.00 105.50 L 195.50 115.00 L 194.00 117.50 L 188.00 121.50 Z" fill="#697DC7"/>
<path d="M 106.00 175.50 L 104.00 175.50 L 92.00 167.50 L 78.50 154.00 L 82.00 141.50 L 94.00 153.50 L 104.00 159.50 L 109.50 161.00 L 106.00 175.50 Z" fill="#697DC7"/>
<path d="M 152.00 175.50 L 149.50 175.00 L 147.50 161.00 L 162.00 153.50 L 174.00 141.50 L 177.50 154.00 L 169.00 163.50 L 152.00 175.50 Z" fill="#697DC7"/>
<path d="M 56.00 175.50 L 50.50 175.00 L 51.50 156.00 L 53.00 154.50 L 64.00 153.50 L 79.00 143.50 L 77.50 152.00 L 71.50 165.00 L 70.50 171.00 L 56.00 175.50 Z" fill="#697DC7"/>
<path d="M 205.00 175.50 L 194.00 174.50 L 185.50 171.00 L 184.50 165.00 L 178.50 152.00 L 177.00 143.50 L 192.00 153.50 L 203.00 154.50 L 204.50 156.00 L 205.00 175.50 Z" fill="#697DC7"/>
<path d="M 102.00 184.50 L 84.50 168.00 L 78.50 160.00 L 78.00 156.50 L 91.00 169.50 L 105.50 178.00 L 102.00 184.50 Z" fill="#697DC7"/>
<path d="M 154.00 184.50 L 150.50 178.00 L 165.00 169.50 L 178.00 156.50 L 178.50 159.00 L 171.50 168.00 L 154.00 184.50 Z" fill="#697DC7"/>
<path d="M 100.00 190.50 L 84.00 186.50 L 76.00 182.50 L 70.50 178.00 L 76.00 160.50 L 84.50 171.00 L 101.50 186.00 L 100.00 190.50 Z" fill="#697DC7"/>
<path d="M 158.00 190.50 L 155.50 190.00 L 154.50 186.00 L 162.00 180.50 L 180.00 160.50 L 185.50 178.00 L 180.00 182.50 L 172.00 186.50 L 158.00 190.50 Z" fill="#697DC7"/>
<path d="M 69.00 174.50 L 69.00 173.50 L 69.00 174.50 Z" fill="#697DC7"/>
<path d="M 187.00 174.50 L 187.00 173.50 L 187.00 174.50 Z" fill="#697DC7"/>
<path d="M 59.00 185.50 L 51.00 185.50 L 50.50 178.00 L 68.00 174.50 L 67.50 182.00 L 59.00 185.50 Z" fill="#697DC7"/>
<path d="M 205.00 185.50 L 197.00 185.50 L 190.00 183.50 L 188.50 182.00 L 187.50 175.00 L 205.00 177.50 L 205.00 185.50 Z" fill="#697DC7"/>
<path d="M 84.00 212.50 L 68.50 196.00 L 68.50 186.00 L 70.00 179.50 L 72.50 188.00 L 76.50 195.00 L 88.50 207.00 L 84.00 212.50 Z" fill="#697DC7"/>
<path d="M 172.00 212.50 L 167.50 207.00 L 179.50 195.00 L 183.50 188.00 L 186.00 179.50 L 187.50 185.00 L 187.50 196.00 L 172.00 212.50 Z" fill="#697DC7"/>
<path d="M 57.00 210.50 L 55.50 209.00 L 52.50 198.00 L 51.50 188.00 L 66.00 185.50 L 65.50 204.00 L 57.00 210.50 Z" fill="#697DC7"/>
<path d="M 199.00 210.50 L 190.50 204.00 L 190.00 185.50 L 204.50 188.00 L 203.50 198.00 L 200.50 209.00 L 199.00 210.50 Z" fill="#697DC7"/>
<path d="M 68.00 227.50 L 68.00 197.50 L 82.50 213.00 L 82.50 215.00 L 68.00 227.50 Z" fill="#697DC7"/>
<path d="M 188.00 227.50 L 173.50 215.00 L 173.50 213.00 L 188.00 197.50 L 188.00 227.50 Z" fill="#697DC7"/>
<path d="M 65.00 227.50 L 57.50 214.00 L 57.50 212.00 L 66.00 206.50 L 66.50 224.00 L 65.00 227.50 Z" fill="#697DC7"/>
<path d="M 191.00 227.50 L 189.50 224.00 L 190.00 206.50 L 198.50 212.00 L 198.50 214.00 L 191.00 227.50 Z" fill="#697DC7"/>
<path d="M 61.00 144.50 L 51.00 143.50 L 48.50 141.00 L 49.50 135.00 L 53.00 131.50 L 59.00 128.50 L 63.00 127.50 L 70.00 128.50 L 73.50 133.00 L 71.50 138.00 L 66.00 142.50 L 61.00 144.50 Z" fill="#F78935"/>
<path d="M 203.00 144.50 L 195.00 144.50 L 187.00 140.50 L 182.50 134.00 L 183.50 131.00 L 186.00 128.50 L 193.00 127.50 L 203.00 131.50 L 207.50 137.00 L 207.50 141.00 L 203.00 144.50 Z" fill="#F78935"/>
<path d="M 132.00 217.50 L 123.50 217.00 L 125.00 141.50 L 131.50 142.00 L 132.00 217.50 Z" fill="#F78935"/>
</svg>